# 3ds Max Wavefront OBJ Exporter v0.97b - (c)2007 guruware
# File Created: 22.09.2015 11:04:02

mtllib 3d-model.mtl

#
# object Layer0_001
#

v  -13.7769 2.5448 -0.1968
v  -13.7027 38.9061 -0.1968
v  -13.7027 38.9061 -0.5906
v  -13.7769 2.5448 -0.5906
v  13.7821 2.5448 -0.5906
v  13.7821 2.5448 -0.1968
v  13.7821 38.9061 -0.1968
v  13.7821 38.9061 -0.5906
v  -15.2035 1.1211 -0.5906
v  16.3269 0.0000 -0.5906
v  -16.3269 0.0000 -0.5906
v  -16.2423 41.4509 -0.5906
v  -15.1235 40.3298 -0.5906
v  15.2058 40.3298 -0.5906
v  16.3269 41.4509 -0.5906
v  15.2058 1.1211 -0.5906
v  13.7821 2.5448 0.1968
v  -15.2035 1.1211 0.1968
v  15.2058 1.1211 0.1968
v  15.2058 40.3298 0.1968
v  13.7821 38.9061 0.1968
v  -13.7027 38.9061 0.1968
v  -15.1235 40.3298 0.1968
v  -13.7769 2.5448 0.1968
v  16.3269 41.4509 0.5906
v  16.3269 0.0000 0.5906
v  -16.2423 41.4509 0.5906
v  -16.3269 0.0000 0.5906
v  15.2058 1.1211 0.5906
v  15.2058 40.3298 0.5906
v  -15.1235 40.3298 0.5906
v  -15.2035 1.1211 0.5906
# 32 vertices

vn -1.0000 0.0020 -0.0000
vn 0.0000 -1.0000 -0.0000
vn 1.0000 0.0000 -0.0000
vn 0.0000 0.0000 -1.0000
vn 0.0000 0.0000 1.0000
vn -1.0000 0.0000 -0.0000
vn 0.0000 1.0000 -0.0000
vn 1.0000 -0.0020 -0.0000
# 8 vertex normals

vt 0.0000 0.0000 0.0000
# 1 texture coords

g Layer0_001
usemtl wire_028089177
s off
f 1/1/1 2/1/1 3/1/1 4/1/1 
f 1/1/2 4/1/2 5/1/2 6/1/2 
f 7/1/3 6/1/3 5/1/3 8/1/3 
f 6/1/4 1/1/4 2/1/4 7/1/4 
f 5/1/4 4/1/4 3/1/4 8/1/4 
f 9/1/4 10/1/4 11/1/4 12/1/4 
f 13/1/4 9/1/4 12/1/4 14/1/4 
f 14/1/4 12/1/4 15/1/4 16/1/4 
f 16/1/4 15/1/4 10/1/4 9/1/4 
f 2/1/2 3/1/2 8/1/2 7/1/2 
f 17/1/5 18/1/5 19/1/5 20/1/5 
f 21/1/5 17/1/5 20/1/5 22/1/5 
f 22/1/5 20/1/5 23/1/5 24/1/5 
f 24/1/5 23/1/5 18/1/5 17/1/5 
f 17/1/6 21/1/6 7/1/6 6/1/6 
f 1/1/7 24/1/7 17/1/7 6/1/7 
f 22/1/8 24/1/8 1/1/8 2/1/8 
f 22/1/2 2/1/2 7/1/2 21/1/2 
f 14/1/4 16/1/4 5/1/4 8/1/4 
f 4/1/4 16/1/4 9/1/4 13/1/4 
f 3/1/4 4/1/4 13/1/4 8/1/4 
f 8/1/4 13/1/4 14/1/4 
f 5/1/4 16/1/4 4/1/4 
f 25/1/3 26/1/3 10/1/3 15/1/3 
f 12/1/7 27/1/7 25/1/7 15/1/7 
f 28/1/1 27/1/1 12/1/1 11/1/1 
f 28/1/2 11/1/2 10/1/2 26/1/2 
f 29/1/5 28/1/5 26/1/5 25/1/5 
f 30/1/5 29/1/5 25/1/5 31/1/5 
f 31/1/5 25/1/5 27/1/5 32/1/5 
f 32/1/5 27/1/5 28/1/5 29/1/5 
f 31/1/2 23/1/2 20/1/2 30/1/2 
f 29/1/6 30/1/6 20/1/6 19/1/6 
f 18/1/7 32/1/7 29/1/7 19/1/7 
f 31/1/8 32/1/8 18/1/8 23/1/8 
# 33 polygons - 2 triangles

